<svg width="63" height="73" viewBox="0 0 63 73" fill="none" xmlns="http://www.w3.org/2000/svg">
<path fill-rule="evenodd" clip-rule="evenodd" d="M31.3693 0.251465L62.5062 18.253V54.2562L31.3693 72.2578L0.232422 54.2562V18.253L31.3693 0.251465ZM31.3693 3.33595L2.9 19.7953V52.714L31.3693 69.1733L59.8386 52.714V19.7953L31.3693 3.33595Z" fill="currentColor"/>
<path fill-rule="evenodd" clip-rule="evenodd" d="M31.3692 11.5146L52.7654 23.8847V48.6248L31.3692 60.9949L9.97302 48.6248V23.8847L31.3692 11.5146ZM31.3692 13.3315L11.5443 24.7931V47.7164L31.3692 59.1781L51.1941 47.7164V24.7931L31.3692 13.3315Z" fill="currentColor"/>
<path fill-rule="evenodd" clip-rule="evenodd" d="M46.1742 10.5771L60.9786 36.2545L46.1742 61.9318H16.5652L1.76074 36.2545L16.5652 10.5771H46.1742ZM45.2769 12.1334H17.4625L3.55523 36.2545L17.4625 60.3756H45.2769L59.1841 36.2545L45.2769 12.1334Z" fill="currentColor"/>
<path fill-rule="evenodd" clip-rule="evenodd" d="M41.6785 18.373L51.9879 36.254L41.6785 54.135H21.0597L10.7502 36.254L21.0597 18.373H41.6785ZM40.8356 19.835H21.9026L12.436 36.254L21.9026 52.6731H40.8356L50.3022 36.254L40.8356 19.835Z" fill="currentColor"/>
<path fill-rule="evenodd" clip-rule="evenodd" d="M31.3693 19.1035L46.2021 27.679V44.83L31.3693 53.4055L16.5365 44.83V27.679L31.3693 19.1035ZM31.3693 22.147L19.1687 29.2008V43.3082L31.3693 50.3619L43.5699 43.3082V29.2008L31.3693 22.147Z" fill="currentColor"/>
<path fill-rule="evenodd" clip-rule="evenodd" d="M45.3704 27.3843L46.1454 28.7337L32.0803 36.8967L32.0806 52.1807H30.5306L30.53 36.842L16.5597 28.7337L17.3347 27.3843L31.3526 35.5198L45.3704 27.3843Z" fill="currentColor"/>
</svg>
